M48
METRIC,TZ
T1C0.600
T2C0.762
%
G90
G05
T1
X130.81Y-80.01
X132.08Y-87.63
X132.08Y-90.17
X132.08Y-92.71
X132.08Y-95.25
X132.08Y-97.79
X132.08Y-100.33
X132.08Y-102.87
X132.08Y-105.41
X132.08Y-107.95
X132.08Y-110.49
X132.08Y-113.03
X132.08Y-115.57
X133.35Y-80.01
X135.89Y-80.01
X138.43Y-80.01
X140.97Y-80.01
X143.51Y-80.01
X144.399Y-96.393
X144.399Y-98.933
X146.05Y-80.01
X147.32Y-87.63
X147.32Y-90.17
X147.32Y-92.71
X147.32Y-95.25
X147.32Y-97.79
X147.32Y-100.33
X147.32Y-102.87
X147.32Y-105.41
X147.32Y-107.95
X147.32Y-110.49
X147.32Y-113.03
X147.32Y-115.57
X148.59Y-80.01
T2
X134.874Y-120.904
X137.414Y-120.904
X139.954Y-120.904
X142.494Y-120.904
X145.034Y-120.904
T0
M30
